HIERARCHY
ROOT hip
{
	OFFSET 0.000000 0.000000 0.000000 
	CHANNELS 6 Xposition Yposition Zposition Xrotation Zrotation Yrotation
	JOINT abdomen
	{
		OFFSET 0.000000 3.402643 0.000000 
		CHANNELS 3 Xrotation Zrotation Yrotation
		JOINT chest
		{
			OFFSET 0.000000 8.438565 -0.680529 
			CHANNELS 3 Xrotation Zrotation Yrotation
			JOINT neck
			{
				OFFSET 0.000000 10.207942 -0.272212 
				CHANNELS 3 Xrotation Zrotation Yrotation
				JOINT head
				{
					OFFSET 0.000000 3.130431 0.000000 
					CHANNELS 3 Xrotation Zrotation Yrotation
					End Site
					{
						OFFSET 0.000000 3.130435 0.000000 
					}
				}
			}
			JOINT lCollar
			{
				OFFSET 3.470700 6.669187 -0.816635 
				CHANNELS 3 Yrotation Zrotation Xrotation
				JOINT lShldr
				{
					OFFSET 3.198488 0.000000 0.000000 
					CHANNELS 3 Zrotation Yrotation Xrotation
					JOINT lForeArm
					{
						OFFSET 10.139888 0.000000 0.000000 
						CHANNELS 3 Yrotation Zrotation Xrotation
						JOINT lHand
						{
							OFFSET 8.370511 0.000000 0.000000 
							CHANNELS 3 Zrotation Yrotation Xrotation
							End Site
							{
								OFFSET 4.083176 0.000000 0.000000 
							}
						}
					}
				}
			}
			JOINT rCollar
			{
				OFFSET -3.470700 6.669187 -0.816635 
				CHANNELS 3 Yrotation Zrotation Xrotation
				JOINT rShldr
				{
					OFFSET -3.198488 0.000000 0.000000 
					CHANNELS 3 Zrotation Yrotation Xrotation
					JOINT rForeArm
					{
						OFFSET -10.139888 0.000000 0.000000 
						CHANNELS 3 Yrotation Zrotation Xrotation
						JOINT rHand
						{
							OFFSET -8.370511 0.000000 0.000000 
							CHANNELS 3 Zrotation Yrotation Xrotation
							End Site
							{
								OFFSET -4.083176 0.000000 0.000000 
							}
						}
					}
				}
			}
		}
	}
	JOINT lThigh
	{
		OFFSET 5.308129 -1.633274 1.361059 
		CHANNELS 3 Xrotation Zrotation Yrotation
		JOINT lShin
		{
			OFFSET -2.041588 -20.007561 0.000000 
			CHANNELS 3 Xrotation Zrotation Yrotation
			JOINT lFoot
			{
				OFFSET 0.000000 -19.190928 -1.224953 
				CHANNELS 3 Xrotation Yrotation Zrotation
				End Site
				{
					OFFSET 0.000000 -2.449906 4.627600 
				}
			}
		}
	}
	JOINT rThigh
	{
		OFFSET -5.308129 -1.633274 1.361059 
		CHANNELS 3 Xrotation Zrotation Yrotation
		JOINT rShin
		{
			OFFSET 2.041588 -20.007561 0.000000 
			CHANNELS 3 Xrotation Zrotation Yrotation
			JOINT rFoot
			{
				OFFSET 0.000000 -19.190928 -1.224953 
				CHANNELS 3 Xrotation Yrotation Zrotation
				End Site
				{
					OFFSET 0.000000 -2.449906 4.627600 
				}
			}
		}
	}
}
MOTION
Frames: 11
Frame Time: 0.011111
-24.490221 52.070480 17.757784 1.688672 -0.060614 -12.331447 23.292788 -0.295596 -1.309339 -20.840666 -0.733069 -0.439069 -14.290694 -10.657880 -3.560758 15.710021 14.713833 -8.701438 2.424333 -4.683778 1.783845 -69.437332 -28.553389 9.754375 -48.349571 7.296102 7.485309 8.524705 12.647240 -58.489635 -2.738486 -1.140572 2.095526 73.202583 23.930473 18.457167 48.268860 -7.291533 7.471959 -8.534408 -12.637552 25.804543 1.152144 5.749666 -4.196600 23.660576 -5.645136 -4.024477 -28.638554 6.788401 1.488855 -1.560181 -6.255187 19.872847 25.748905 5.508294 4.301230 -27.514553 -4.619742 -0.220353 
-24.479393 52.069878 17.725605 1.651366 -0.053372 -12.194187 23.381340 -0.317502 -1.276761 -20.830873 -0.752259 -0.428913 -14.414414 -10.563143 -3.488659 15.986078 14.581788 -8.553133 2.424333 -4.683778 1.783845 -69.389786 -28.651831 9.743322 -48.277615 7.283324 7.465037 8.524705 12.647240 -58.401745 -2.738486 -1.140572 2.095526 73.233353 23.968882 17.983646 47.946461 -7.205388 7.341081 -8.534408 -12.637552 25.521345 1.172132 5.780121 -4.065910 23.610420 -5.644826 -4.020030 -28.282177 6.583926 1.307881 -1.550226 -6.262431 19.794020 25.774925 5.531612 4.289287 -27.537794 -4.664964 -0.252319 
-24.459543 52.066273 17.707561 1.480899 -0.067521 -11.949159 23.566671 -0.253701 -1.272194 -20.821003 -0.820521 -0.427236 -14.528736 -10.483967 -3.366297 16.331041 14.463076 -8.250893 2.424333 -4.683778 1.783845 -69.340195 -28.652630 9.986183 -48.370811 7.305647 7.504125 8.524705 12.647240 -58.128304 -2.738486 -1.140572 2.095526 73.212502 23.930260 17.578606 47.625175 -7.123841 7.218643 -8.534408 -12.637552 25.179544 1.297390 5.765124 -4.356486 23.590042 -5.648930 -3.999621 -28.511221 6.365651 1.251511 -1.327387 -6.317899 19.610418 25.746859 5.521916 4.284645 -27.591717 -4.702569 -0.281275 
-24.448414 52.071381 17.680796 1.396008 -0.051899 -11.733313 23.664625 -0.251035 -1.250201 -20.869808 -0.840143 -0.416242 -14.457762 -10.463383 -3.234002 16.496979 14.388027 -7.964543 2.424333 -4.683778 1.783845 -69.318924 -28.584600 10.132158 -48.515682 7.337358 7.553353 8.524705 12.647240 -58.001358 -2.738486 -1.140572 2.095526 73.140297 23.824360 17.400421 47.437908 -7.070511 7.146007 -8.534408 -12.637552 25.101418 1.337253 5.746888 -4.477079 23.570549 -5.644839 -4.006799 -28.385654 6.231983 1.183530 -1.219951 -6.356885 19.483545 25.746859 5.521914 4.284643 -27.602179 -4.770427 -0.317058 
-24.449320 52.079506 17.640499 1.368330 -0.043226 -11.527808 23.714231 -0.295880 -1.215996 -20.957706 -0.840499 -0.405192 -14.224978 -10.369326 -3.152980 16.440189 14.218838 -7.758637 2.424333 -4.683778 1.783845 -69.258614 -28.546503 10.101323 -48.589554 7.362762 7.588325 8.524705 12.647240 -58.059948 -2.738486 -1.140572 2.095526 73.136795 23.687677 17.185560 47.283783 -7.036992 7.087307 -8.534408 -12.637552 25.003763 1.288886 5.799460 -4.393400 23.560516 -5.644753 -4.005905 -27.915480 6.107944 0.996231 -1.209396 -6.344316 19.405519 25.746859 5.521919 4.284644 -27.646906 -4.876441 -0.369848 
-24.454731 52.076195 17.596594 1.340640 -0.073632 -11.313462 23.763851 -0.308186 -1.156993 -20.947889 -0.878917 -0.384694 -14.107264 -10.196399 -3.067878 16.485212 14.014744 -7.510105 2.424333 -4.683778 1.783845 -69.113297 -28.714876 10.009578 -48.506001 7.339090 7.551798 8.524705 12.647240 -58.225964 -2.738486 -1.140572 2.095526 73.205978 23.676422 16.797338 47.003651 -6.957985 6.978968 -8.534408 -12.637552 24.720562 1.189735 5.889570 -4.423951 23.569981 -5.648782 -3.997836 -27.930067 5.792094 0.858859 -1.179895 -6.274138 19.418810 25.746859 5.521915 4.284644 -27.717846 -5.003089 -0.437837 
-24.458639 52.075897 17.550880 1.380019 -0.159241 -11.091094 23.763819 -0.221582 -1.108733 -20.879454 -0.927267 -0.384403 -14.250009 -10.104019 -2.881169 16.844213 13.922251 -7.126019 2.424333 -4.683778 1.783845 -69.018990 -28.950798 9.880049 -48.454342 7.329539 7.540514 8.524705 12.647240 -58.391975 -2.738486 -1.140572 2.095526 73.227821 23.754101 16.583189 46.755596 -6.892337 6.886298 -8.534408 -12.637552 24.593607 1.044241 6.057353 -4.409147 23.580584 -5.644888 -4.007688 -27.822556 5.543262 0.725772 -1.209275 -6.119544 19.424030 25.774925 5.531616 4.289288 -27.796520 -5.133295 -0.532108 
-24.459242 52.087322 17.512388 1.409888 -0.178895 -10.857357 23.764536 -0.189613 -1.029750 -20.918442 -0.985551 -0.362600 -14.353474 -10.023339 -2.680913 17.256990 13.840053 -6.696782 2.424333 -4.683778 1.783845 -68.959869 -28.971279 9.956634 -48.578712 7.358653 7.589246 8.524705 12.647240 -57.942757 -2.738486 -1.140572 2.095526 73.234734 23.636730 16.476101 46.631821 -6.858492 6.831667 -8.534408 -12.637552 24.603374 0.937508 6.159127 -4.339848 23.540510 -5.644370 -4.004077 -27.523722 5.389533 0.555676 -1.258858 -6.053608 19.405470 25.864496 5.531816 4.306920 -27.901880 -5.290043 -0.612215 
-24.462851 52.098454 17.479912 1.410704 -0.046543 -10.678254 23.748169 -0.432636 -0.894451 -20.947672 -1.042628 -0.301849 -14.322131 -9.800030 -2.561318 17.473234 13.603577 -6.360327 2.424333 -4.683778 1.783845 -68.842033 -29.031754 10.187925 -48.568089 7.353931 7.580427 8.524705 12.647240 -57.122448 -2.738486 -1.140572 2.095526 73.310074 23.478815 16.162434 46.518429 -6.830176 6.794300 -8.534408 -12.637552 24.232281 0.897218 6.055564 -4.287826 23.509743 -5.648564 -3.992525 -27.273918 5.277671 0.475788 -1.315679 -6.173846 19.379782 25.946518 5.522751 4.302317 -27.994347 -5.390649 -0.686950 
-24.473677 52.103859 17.435402 1.478589 0.108780 -10.528071 23.663605 -0.710509 -0.723309 -20.869532 -1.049847 -0.224908 -14.311716 -9.603528 -2.421089 17.579041 13.364969 -6.033753 2.424333 -4.683778 1.783845 -68.738365 -29.297110 10.263207 -48.495174 7.334960 7.551488 8.524705 12.647240 -56.712292 -2.738486 -1.140572 2.095526 73.338821 23.439119 15.802137 46.507870 -6.824981 6.785800 -8.534408 -12.637552 23.285013 0.810220 5.960474 -4.213645 23.450119 -5.644171 -3.996138 -27.059740 5.139612 0.346519 -1.501639 -6.293174 19.272089 26.046675 5.521395 4.311635 -28.022432 -5.404418 -0.686779 
-24.489315 52.102959 17.378864 1.432013 0.111578 -10.215274 23.762182 -0.786505 -0.662552 -20.879341 -1.020064 -0.206009 -14.271835 -9.417863 -2.253334 17.696257 13.062258 -5.653727 2.424333 -4.683778 1.783845 -68.692818 -29.493177 10.286237 -48.506001 7.339090 7.551798 8.524705 12.647240 -56.468151 -2.738486 -1.140572 2.095526 73.307068 23.361660 15.576492 46.559177 -6.836891 6.804493 -8.534408 -12.637552 22.386578 0.780490 6.028326 -4.267518 23.347509 -5.654849 -3.978754 -26.790430 4.889407 0.196971 -1.519915 -6.240703 19.155386 26.167616 5.512395 4.339662 -28.160522 -5.526903 -0.780164 
